<svg fill="white" fill-rule="evenodd" height="21px" viewBox="0 0 24 24" width="21px" xmlns="http://www.w3.org/2000/svg" style="position:relative;top:1px" class="css-uk6cul eba5aip0"><path d="M16 13H13.6563V20H10.5312V13H8V10.0938H10.5312V7.90625C10.5312 7.07292 10.6875 6.36458 11 5.78125C11.3125 5.19792 11.75 4.76042 12.3125 4.46875C12.8958 4.15625 13.5625 4 14.3125 4C14.6458 4 15 4.02083 15.375 4.0625C15.75 4.08333 16.0417 4.11458 16.25 4.15625L16.5625 4.1875V6.65625H15.3125C14.7292 6.65625 14.3021 6.8125 14.0313 7.125C13.7813 7.41667 13.6563 7.78125 13.6563 8.21875V10.0938H16.4375L16 13Z"></path></svg>