<svg fill="white" fill-rule="evenodd" height="21px" viewBox="0 0 24 24" width="21px" xmlns="http://www.w3.org/2000/svg" ><path d="M9.04408 9.10714C9.85361 8.29762 10.8298 7.89286 11.9727 7.89286C13.1155 7.89286 14.0798 8.29762 14.8655 9.10714C15.675 9.89286 16.0798 10.8571 16.0798 12C16.0798 13.1429 15.675 14.119 14.8655 14.9286C14.0798 15.7143 13.1155 16.1071 11.9727 16.1071C10.8298 16.1071 9.85361 15.7143 9.04408 14.9286C8.25837 14.119 7.86551 13.1429 7.86551 12C7.86551 10.8571 8.25837 9.89286 9.04408 9.10714ZM10.0798 13.8929C10.6036 14.4167 11.2346 14.6786 11.9727 14.6786C12.7108 14.6786 13.3417 14.4167 13.8655 13.8929C14.3893 13.369 14.6512 12.7381 14.6512 12C14.6512 11.2619 14.3893 10.631 13.8655 10.1071C13.3417 9.58333 12.7108 9.32143 11.9727 9.32143C11.2346 9.32143 10.6036 9.58333 10.0798 10.1071C9.55599 10.631 9.29408 11.2619 9.29408 12C9.29408 12.7381 9.55599 13.369 10.0798 13.8929ZM16.9012 7.07143C17.0917 7.2381 17.1869 7.45238 17.1869 7.71429C17.1869 7.97619 17.0917 8.20238 16.9012 8.39286C16.7346 8.58333 16.5203 8.67857 16.2584 8.67857C15.9965 8.67857 15.7703 8.58333 15.5798 8.39286C15.3893 8.20238 15.2941 7.97619 15.2941 7.71429C15.2941 7.45238 15.3893 7.2381 15.5798 7.07143C15.7703 6.88095 15.9965 6.78571 16.2584 6.78571C16.5203 6.78571 16.7346 6.88095 16.9012 7.07143ZM19.9369 8.71429C19.9608 9.35714 19.9727 10.4524 19.9727 12C19.9727 13.5476 19.9608 14.6429 19.9369 15.2857C19.8655 16.7381 19.425 17.869 18.6155 18.6786C17.8298 19.4643 16.7108 19.881 15.2584 19.9286C14.6155 19.9762 13.5203 20 11.9727 20C10.425 20 9.3298 19.9762 8.68694 19.9286C7.23456 19.8571 6.11551 19.4286 5.3298 18.6429C5.02028 18.3571 4.77028 18.0238 4.5798 17.6429C4.38932 17.2619 4.24647 16.8929 4.15123 16.5357C4.0798 16.1786 4.04408 15.7619 4.04408 15.2857C3.99647 14.6429 3.97266 13.5476 3.97266 12C3.97266 10.4524 3.99647 9.34524 4.04408 8.67857C4.11551 7.25 4.54408 6.14286 5.3298 5.35714C6.11551 4.54762 7.23456 4.10714 8.68694 4.03571C9.3298 4.0119 10.425 4 11.9727 4C13.5203 4 14.6155 4.0119 15.2584 4.03571C16.7108 4.10714 17.8298 4.54762 18.6155 5.35714C19.425 6.14286 19.8655 7.2619 19.9369 8.71429ZM18.2227 16.7143C18.2941 16.5238 18.3536 16.2857 18.4012 16C18.4488 15.6905 18.4846 15.3333 18.5084 14.9286C18.5322 14.5 18.5441 14.1548 18.5441 13.8929C18.5441 13.631 18.5441 13.2619 18.5441 12.7857C18.5441 12.3095 18.5441 12.0476 18.5441 12C18.5441 11.9286 18.5441 11.6667 18.5441 11.2143C18.5441 10.7381 18.5441 10.369 18.5441 10.1071C18.5441 9.84524 18.5322 9.5119 18.5084 9.10714C18.4846 8.67857 18.4488 8.32143 18.4012 8.03571C18.3536 7.72619 18.2941 7.47619 18.2227 7.28571C17.9369 6.54762 17.425 6.03571 16.6869 5.75C16.4965 5.67857 16.2465 5.61905 15.9369 5.57143C15.6512 5.52381 15.2941 5.4881 14.8655 5.46429C14.4608 5.44048 14.1274 5.42857 13.8655 5.42857C13.6274 5.42857 13.2584 5.42857 12.7584 5.42857C12.2822 5.42857 12.0203 5.42857 11.9727 5.42857C11.925 5.42857 11.6631 5.42857 11.1869 5.42857C10.7108 5.42857 10.3417 5.42857 10.0798 5.42857C9.81789 5.42857 9.47266 5.44048 9.04408 5.46429C8.63932 5.4881 8.28218 5.52381 7.97266 5.57143C7.68694 5.61905 7.44885 5.67857 7.25837 5.75C6.52028 6.03571 6.00837 6.54762 5.72266 7.28571C5.65123 7.47619 5.5917 7.72619 5.54408 8.03571C5.49647 8.32143 5.46075 8.67857 5.43694 9.10714C5.41313 9.5119 5.40123 9.84524 5.40123 10.1071C5.40123 10.3452 5.40123 10.7143 5.40123 11.2143C5.40123 11.6905 5.40123 11.9524 5.40123 12C5.40123 12.0952 5.40123 12.3214 5.40123 12.6786C5.40123 13.0119 5.40123 13.2976 5.40123 13.5357C5.40123 13.75 5.40123 14.0357 5.40123 14.3929C5.42504 14.75 5.44885 15.0595 5.47266 15.3214C5.49647 15.5595 5.53218 15.8095 5.5798 16.0714C5.62742 16.3333 5.67504 16.5476 5.72266 16.7143C6.03218 17.4524 6.54408 17.9643 7.25837 18.25C7.44885 18.3214 7.68694 18.381 7.97266 18.4286C8.28218 18.4762 8.63932 18.5119 9.04408 18.5357C9.47266 18.5595 9.80599 18.5714 10.0441 18.5714C10.306 18.5714 10.675 18.5714 11.1512 18.5714C11.6512 18.5714 11.925 18.5714 11.9727 18.5714C12.0441 18.5714 12.306 18.5714 12.7584 18.5714C13.2346 18.5714 13.6036 18.5714 13.8655 18.5714C14.1274 18.5714 14.4608 18.5595 14.8655 18.5357C15.2941 18.5119 15.6512 18.4762 15.9369 18.4286C16.2465 18.381 16.4965 18.3214 16.6869 18.25C17.425 17.9405 17.9369 17.4286 18.2227 16.7143Z"></path></svg>