<svg fill="white" fill-rule="evenodd" height="21px" viewBox="0 0 24 24" width="21px" xmlns="http://www.w3.org/2000/svg"><path d="M8.99915 16.9692C8.99915 15.8757 8.09309 14.9696 6.99958 14.9696C5.87481 14.9696 5 15.8757 5 16.9692C5 18.0939 5.87481 18.9688 6.99958 18.9688C8.09309 18.9688 8.99915 18.0939 8.99915 16.9692ZM14.4667 18.4689C14.2168 13.6261 10.3426 9.75196 5.49989 9.50201C5.2187 9.47077 5 9.72072 5 10.0019V11.5016C5 11.7515 5.18746 11.9702 5.43741 12.0015C8.93667 12.2202 11.7486 15.0321 11.9673 18.5313C11.9985 18.7813 12.2172 18.9688 12.4672 18.9688H13.9668C14.248 18.9688 14.498 18.7501 14.4667 18.4689ZM18.9658 18.4689C18.7158 11.1579 12.8421 5.25292 5.49989 5.00297C5.2187 4.97172 5 5.19043 5 5.50286V7.00254C5 7.25249 5.18746 7.47119 5.46865 7.50244C11.4361 7.72114 16.2476 12.5326 16.4663 18.5001C16.4976 18.7813 16.7163 19 16.9662 19H18.4659C18.7783 18.9688 18.997 18.7501 18.9658 18.4689Z"></path></svg>