<svg fill="white" fill-rule="evenodd" height="21px" viewBox="0 0 24 24" width="21px" xmlns="http://www.w3.org/2000/svg"><path d="M21.1869 7.1978C21.2602 7.49084 21.3212 7.85714 21.3701 8.2967C21.4433 8.73626 21.4922 9.17582 21.5166 9.61538C21.541 10.0305 21.5532 10.4212 21.5532 10.7875C21.5776 11.1538 21.5898 11.4591 21.5898 11.7033V12.033C21.5898 14.2308 21.4555 15.8547 21.1869 16.9048C21.0648 17.3199 20.845 17.6862 20.5276 18.0037C20.2101 18.3211 19.8316 18.5409 19.392 18.663C18.9281 18.7851 18.0489 18.8828 16.7547 18.956C15.4604 19.0049 14.276 19.0415 13.2016 19.0659H11.5898C7.41402 19.0659 4.81329 18.9316 3.78765 18.663C2.83526 18.3944 2.23697 17.8083 1.99277 16.9048C1.87067 16.4408 1.77299 15.8059 1.69973 15C1.65089 14.1697 1.61426 13.4737 1.58984 12.9121V12.033C1.58984 9.85958 1.72415 8.24786 1.99277 7.1978C2.11487 6.75824 2.33465 6.37973 2.65211 6.06227C2.96958 5.74481 3.34809 5.52503 3.78765 5.40293C4.25163 5.28083 5.13075 5.19536 6.42501 5.14652C7.71927 5.07326 8.90364 5.02442 9.97812 5H11.5898C15.7657 5 18.3664 5.13431 19.392 5.40293C19.8316 5.52503 20.2101 5.74481 20.5276 6.06227C20.845 6.37973 21.0648 6.75824 21.1869 7.1978ZM9.53856 15.0366L14.7767 12.033L9.53856 9.06593V15.0366Z"></path></svg>