<svg fill="white" fill-rule="evenodd" height="20px" viewBox="0 0 24 24" width="20px" xmlns="http://www.w3.org/2000/svg" class="css-mtqppf eba5aip0"><path d="M3.75 11C3.75 6.99594 6.99594 3.75 11 3.75C15.0041 3.75 18.25 6.99594 18.25 11C18.25 12.9618 17.4708 14.7416 16.205 16.0468C16.1753 16.0688 16.1469 16.0932 16.1201 16.1201C16.0932 16.1469 16.0688 16.1753 16.0468 16.205C14.7416 17.4708 12.9618 18.25 11 18.25C6.99594 18.25 3.75 15.0041 3.75 11ZM16.6342 17.6949C15.112 18.9773 13.1462 19.75 11 19.75C6.16751 19.75 2.25 15.8325 2.25 11C2.25 6.16751 6.16751 2.25 11 2.25C15.8325 2.25 19.75 6.16751 19.75 11C19.75 13.1462 18.9773 15.112 17.6949 16.6342L21.5307 20.4701C21.8236 20.763 21.8236 21.2378 21.5307 21.5307C21.2378 21.8236 20.763 21.8236 20.4701 21.5307L16.6342 17.6949Z"></path></svg>