<?xml version="1.0" encoding="UTF-8" standalone="no"?>
<!DOCTYPE svg PUBLIC "-//W3C//DTD SVG 1.1//EN" "http://www.w3.org/Graphics/SVG/1.1/DTD/svg11.dtd">
<svg width="100%" height="100%" viewBox="0 0 380 38" version="1.1" xmlns="http://www.w3.org/2000/svg" xmlns:xlink="http://www.w3.org/1999/xlink" xml:space="preserve" xmlns:serif="http://www.serif.com/" style="fill-rule:evenodd;clip-rule:evenodd;stroke-linejoin:round;stroke-miterlimit:2;">
    <g transform="matrix(1,0,0,1,-6868.26,-2660.16)">
        <g transform="matrix(1,0,0,1.0352,2462.79,-18.0326)">
            <g id="logotype-on-dark" serif:id="logotype on dark" transform="matrix(0.476097,0,0,0.476097,2365.12,1204.29)">
                <g id="plus">
                    <g transform="matrix(8.33333,0,0,8.04997,3243.18,2350.62)">
                        <g opacity="0.45">
                            <g transform="matrix(1,0,0,1,0,-1283.92)">
                                <rect x="215.301" y="1352.83" width="1.673" height="5.34" style="fill:white;"/>
                            </g>
                        </g>
                    </g>
                    <g transform="matrix(-8.33333,0,0,8.04997,6845.42,-7925.56)">
                        <rect x="215.298" y="1349.14" width="1.673" height="5.346" style="fill:rgb(216,28,36);"/>
                    </g>
                    <g transform="matrix(0,-8.04997,-8.33333,0,5066.56,2963.21)">
                        <path d="M1.837,3.51L3.51,3.51L3.51,-1.837L1.837,-1.33L1.837,3.51Z" style="fill:rgb(216,28,36);fill-rule:nonzero;"/>
                    </g>
                    <g transform="matrix(8.33333,0,0,8.04997,3243.18,2350.62)">
                        <g opacity="0.45">
                            <g transform="matrix(0,1,1,0,215.138,76.0944)">
                                <path d="M-3.51,1.837L-1.837,1.837L-1.837,-3.51L-3.51,-2.977L-3.51,1.837Z" style="fill:white;fill-rule:nonzero;"/>
                            </g>
                        </g>
                    </g>
                </g>
                <g id="dailywire">
                    <g transform="matrix(8.33333,0,0,8.04997,4338.48,2943.12)">
                        <path d="M0,-0.232C0,-1.207 -0.435,-2.067 -1.199,-2.59C-1.726,-2.938 -2.49,-3.147 -3.372,-3.147C-3.675,-3.147 -3.965,-3.124 -4.202,-3.101L-4.202,2.788C-4.202,2.834 -4.176,2.857 -4.136,2.857C-3.925,2.881 -3.636,2.892 -3.399,2.892C-2.608,2.892 -1.831,2.695 -1.264,2.289C-0.514,1.754 0,0.929 0,-0.22L0,-0.232ZM2.068,-0.278C2.068,1.417 1.278,2.718 -0.053,3.566C-1.001,4.182 -2.266,4.46 -3.728,4.46C-4.281,4.46 -4.874,4.449 -5.295,4.437C-5.651,4.425 -6.046,4.414 -6.349,4.391L-6.349,4.332C-6.165,4.228 -6.165,3.798 -6.165,0.419L-6.165,-0.859C-6.165,-4.006 -6.165,-4.401 -6.336,-4.483L-6.336,-4.599C-6.059,-4.61 -5.651,-4.645 -5.111,-4.657C-4.558,-4.68 -4.07,-4.692 -3.543,-4.692C-2.068,-4.692 -0.935,-4.436 -0.066,-3.96C1.436,-3.159 2.068,-1.707 2.068,-0.29L2.068,-0.278Z" style="fill:rgb(188,190,191);fill-rule:nonzero;"/>
                    </g>
                    <g transform="matrix(8.33333,0,0,8.04997,4411.54,2930.12)">
                        <path d="M0,2.858L-0.013,2.823C-0.764,1.092 -0.949,0.605 -1.054,0.268L-1.067,0.268C-1.186,0.605 -1.383,1.092 -2.16,2.823L-2.173,2.858L0,2.858ZM-2.766,4.24C-3.32,5.425 -3.53,5.901 -3.399,5.971L-3.399,6.04L-5.717,6.04L-5.717,5.971C-5.572,5.901 -5.322,5.425 -3.649,2.022L-1.12,-3.182L-0.83,-3.182L1.66,2.033C3.293,5.413 3.53,5.901 3.675,5.971L3.675,6.04L1.186,6.04L1.186,5.971C1.317,5.901 1.107,5.413 0.58,4.24L-2.766,4.24Z" style="fill:rgb(188,190,191);fill-rule:nonzero;"/>
                    </g>
                    <g transform="matrix(8.33333,0,0,8.04997,4480.99,2938.08)">
                        <path d="M0,1.045C0,4.425 0,4.843 0.184,4.982L0.184,5.052L-2.16,5.052L-2.16,4.971C-1.976,4.843 -1.976,4.425 -1.976,1.057L-1.976,-0.233C-1.976,-3.38 -1.976,-3.81 -2.147,-3.926L-2.147,-4.007L0.171,-4.007L0.171,-3.926C0,-3.81 0,-3.392 0,-0.233L0,1.045Z" style="fill:rgb(188,190,191);fill-rule:nonzero;"/>
                    </g>
                    <g transform="matrix(8.33333,0,0,8.04997,4514.97,2948.35)">
                        <path d="M0,-1.509C0,-4.656 0,-5.086 -0.171,-5.202L-0.171,-5.284L2.134,-5.284L2.134,-5.202C1.963,-5.075 1.963,-4.656 1.963,-1.509L1.963,2.196C1.963,2.277 1.989,2.301 2.081,2.301L4.215,2.301C4.518,2.301 4.676,2.289 4.848,2.266C4.992,2.242 5.164,2.196 5.203,2.15L5.309,2.15C5.295,2.846 5.295,3.148 5.282,3.775L-0.171,3.775L-0.171,3.682C0,3.59 0,3.137 0,-0.231L0,-1.509Z" style="fill:rgb(188,190,191);fill-rule:nonzero;"/>
                    </g>
                    <g transform="matrix(8.33333,0,0,8.04997,4610.21,2935.93)">
                        <path d="M0,1.579L0,1.892C0,4.668 0,5.156 0.185,5.249L0.185,5.319L-2.16,5.319L-2.16,5.237C-1.976,5.145 -1.976,4.668 -1.976,1.916L-1.976,1.672L-2.911,0.197C-5.019,-3.136 -5.282,-3.578 -5.467,-3.671L-5.467,-3.74L-2.937,-3.74L-2.937,-3.671C-3.082,-3.589 -2.779,-3.102 -2.042,-1.894C-1.66,-1.243 -1.238,-0.558 -0.975,-0.082L-0.948,-0.082C-0.698,-0.558 -0.29,-1.197 0.119,-1.859C0.883,-3.102 1.186,-3.613 1.054,-3.671L1.054,-3.74L3.425,-3.74L3.425,-3.671C3.267,-3.578 3.017,-3.148 0.883,0.197L0,1.579Z" style="fill:rgb(188,190,191);fill-rule:nonzero;"/>
                    </g>
                    <g transform="matrix(8.33333,0,0,8.04997,4750.35,2905.33)">
                        <path d="M0,9.233L-0.277,9.233C-2.74,4.552 -3.056,3.856 -3.293,3.263L-3.306,3.263C-3.543,3.867 -3.873,4.576 -6.389,9.233L-6.665,9.233L-8.536,3.6C-9.537,0.627 -9.669,0.162 -9.827,0.07L-9.827,0L-7.456,0L-7.456,0.07C-7.627,0.162 -7.456,0.615 -6.744,2.869C-6.415,3.925 -6.244,4.506 -6.059,5.191L-6.02,5.191C-5.756,4.564 -5.467,3.96 -4.913,2.857C-4.334,1.789 -3.767,0.825 -3.372,0.093L-3.109,0.093C-2.714,0.813 -2.2,1.742 -1.528,2.892C-1.041,3.902 -0.724,4.552 -0.461,5.145L-0.435,5.145C-0.25,4.448 -0.092,3.867 0.198,2.938C0.909,0.604 1.094,0.151 0.922,0.07L0.922,0L3.122,0L3.122,0.07C2.964,0.174 2.819,0.615 1.844,3.6L0,9.233Z" style="fill:rgb(188,190,191);fill-rule:nonzero;"/>
                    </g>
                    <g transform="matrix(8.33333,0,0,8.04997,4820.66,2937.59)">
                        <path d="M0,1.045C0,4.425 0,4.843 0.184,4.982L0.184,5.052L-2.16,5.052L-2.16,4.971C-1.976,4.843 -1.976,4.425 -1.976,1.057L-1.976,-0.233C-1.976,-3.38 -1.976,-3.81 -2.147,-3.926L-2.147,-4.007L0.171,-4.007L0.171,-3.926C0,-3.81 0,-3.392 0,-0.233L0,1.045Z" style="fill:rgb(188,190,191);fill-rule:nonzero;"/>
                    </g>
                    <g transform="matrix(8.33333,0,0,8.04997,4889.41,2955.91)">
                        <path d="M0,-3.542C0,-4.378 -0.619,-4.866 -1.607,-4.866C-1.831,-4.866 -2.015,-4.854 -2.134,-4.843L-2.134,-2.079C-2.029,-2.067 -1.884,-2.067 -1.752,-2.067C-1.383,-2.067 -1.014,-2.16 -0.751,-2.299C-0.382,-2.485 0,-2.88 0,-3.53L0,-3.542ZM-4.005,-2.508C-4.005,-5.656 -4.005,-6.144 -4.163,-6.19L-4.163,-6.26C-3.939,-6.271 -3.57,-6.283 -3.201,-6.295C-2.885,-6.306 -2.305,-6.318 -1.963,-6.318C-1.212,-6.318 -0.566,-6.26 0.013,-6.097C0.83,-5.865 1.95,-5.191 1.95,-3.646C1.95,-2.566 1.317,-1.87 0.843,-1.568C0.593,-1.393 0.303,-1.231 0.079,-1.161L0.079,-1.138C0.263,-0.906 0.487,-0.627 2.463,1.789C2.779,2.172 3.188,2.637 3.319,2.706L3.319,2.776L1.344,2.776C1.225,2.776 1.054,2.764 0.922,2.729C0.158,1.719 -0.738,0.534 -1.778,-0.813L-2.134,-0.813L-2.134,-0.348C-2.134,2.149 -2.121,2.637 -1.976,2.706L-1.976,2.776L-4.163,2.776L-4.163,2.706C-4.005,2.637 -4.005,2.149 -4.005,-1.231L-4.005,-2.508Z" style="fill:rgb(188,190,191);fill-rule:nonzero;"/>
                    </g>
                    <g transform="matrix(8.33333,0,0,8.04997,4974.09,2936.55)">
                        <path d="M0,1.301L-1.699,1.301L-1.699,3.496C-1.699,3.601 -1.686,3.659 -1.607,3.705C-0.922,3.717 -0.013,3.717 0.593,3.705C1.146,3.705 1.502,3.682 1.607,3.566L1.686,3.566C1.673,4.263 1.673,4.646 1.673,5.18L-3.833,5.18L-3.833,5.111C-3.662,5.041 -3.662,4.553 -3.662,1.173L-3.662,-0.104C-3.662,-3.252 -3.662,-3.739 -3.82,-3.809L-3.82,-3.879L1.567,-3.879C1.567,-3.356 1.555,-2.95 1.555,-2.265L1.475,-2.265C1.383,-2.392 0.79,-2.427 -0.013,-2.427L-1.699,-2.427L-1.699,-0.139L-0.026,-0.139" style="fill:rgb(188,190,191);fill-rule:nonzero;"/>
                    </g>
                    <g transform="matrix(-8.33333,0,0,8.04997,4959.43,2947.5)">
                        <path d="M-3.235,-1.516L0,-1.516L-0.006,0L-2.595,0L-3.235,-1.516Z" style="fill:rgb(188,190,191);fill-rule:nonzero;"/>
                    </g>
                </g>
            </g>
        </g>
    </g>
</svg>
