<svg width="167" height="28" viewBox="0 0 167 28" fill="none" xmlns="http://www.w3.org/2000/svg">
<path fill-rule="evenodd" clip-rule="evenodd" d="M12.6454 18.1983C12.6454 16.2507 11.7807 14.5346 10.2597 13.4908C9.2113 12.7946 7.69076 12.3778 5.93417 12.3778C5.33107 12.3778 4.75471 12.4236 4.28262 12.4703V24.2281C4.28262 24.321 4.33533 24.3669 4.41401 24.3669C4.83339 24.4136 5.41014 24.4369 5.88184 24.4369C7.45471 24.4369 9.00161 24.0426 10.1291 23.231C11.6229 22.1642 12.6454 20.5173 12.6454 18.2216V18.1983ZM16.7613 18.1057C16.7613 21.4914 15.1888 24.0888 12.5404 25.7816C10.6532 27.0113 8.13651 27.5674 5.22643 27.5674C4.12527 27.5674 2.94542 27.5441 2.10705 27.5212C1.39891 27.4978 0.612866 27.4745 0.00976562 27.4282V27.3123C0.37682 27.1035 0.37682 26.2456 0.37682 19.4971V16.946C0.37682 10.6615 0.37682 9.8732 0.0361222 9.71064V9.47886C0.58651 9.45553 1.39891 9.38591 2.47372 9.36258C3.57488 9.3163 4.54504 9.29297 5.59387 9.29297C8.52953 9.29297 10.7838 9.8032 12.5144 10.754C15.5032 12.3543 16.7613 15.2531 16.7613 18.0823V18.1057Z" fill="#000"/>
<path fill-rule="evenodd" clip-rule="evenodd" d="M30.3502 21.1456L30.3242 21.076C28.83 17.6203 28.4626 16.6461 28.2533 15.9737H28.2269C27.9909 16.6461 27.5974 17.6203 26.0509 21.076L26.025 21.1456H30.3502ZM24.8451 23.9047C23.744 26.2707 23.325 27.2216 23.5866 27.3604V27.4996H21.306H18.9727V27.3604C19.2614 27.2216 19.7591 26.2707 23.0885 19.4756L28.1219 9.08594H28.6986L33.6533 19.4989C36.9041 26.2474 37.3758 27.2216 37.6645 27.3604V27.4996H35.3572H32.7099V27.3604C32.9719 27.2216 32.5525 26.2474 31.5037 23.9047H24.8451Z" fill="#000"/>
<path fill-rule="evenodd" clip-rule="evenodd" d="M46.809 19.498C46.809 26.2469 46.809 27.0814 47.1757 27.3599V27.4987H44.895H42.5098V27.3366C42.8764 27.0814 42.8764 26.2469 42.8764 19.5214V16.9469C42.8764 10.6624 42.8764 9.8041 42.5361 9.57271V9.41016H44.8431H47.1493V9.57271C46.809 9.8041 46.809 10.6391 46.809 16.9469V19.498Z" fill="#000"/>
<path fill-rule="evenodd" clip-rule="evenodd" d="M54.9243 16.9469C54.9243 10.6624 54.9243 9.8041 54.584 9.57271V9.41016H56.9429H59.1712V9.57271C58.8305 9.82744 58.8305 10.6624 58.8305 16.9469V19.4514V24.3444C58.8305 24.507 58.8828 24.554 59.0665 24.554H63.3134C63.9162 24.554 64.2305 24.5303 64.572 24.484C64.86 24.4378 65.201 24.3444 65.2797 24.2523H65.489C65.4627 25.6437 65.4627 26.2469 65.4367 27.4987H60.3507H54.584V27.3132C54.9243 27.1277 54.9243 26.2235 54.9243 19.498V16.9469Z" fill="#000"/>
<path fill-rule="evenodd" clip-rule="evenodd" d="M77.6681 20.0316V20.6573C77.6681 26.2002 77.6681 27.174 78.0356 27.3599V27.4987H75.7546H73.3689V27.3366C73.7356 27.1511 73.7356 26.2002 73.7356 20.704V20.2167L71.8747 17.2716C67.6801 10.6161 67.1557 9.73449 66.7891 9.54899V9.41016H69.3581H71.8224V9.54899C71.5336 9.71155 72.1367 10.6857 73.6053 13.0972C74.365 14.3962 75.2042 15.7643 75.7286 16.7151H75.7809C76.279 15.7643 77.0914 14.4887 77.9042 13.1669C79.4247 10.6857 80.0274 9.66488 79.7654 9.54899V9.41016H82.3608H84.484V9.54899C84.1697 9.73449 83.672 10.5928 79.4247 17.2716L77.6681 20.0316Z" fill="#000"/>
<path fill-rule="evenodd" clip-rule="evenodd" d="M110.014 27.8464H109.464C104.561 18.5005 103.932 17.1095 103.46 15.9264H103.434C102.962 17.1328 102.307 18.5472 97.2997 27.8464H96.7489L93.0264 16.5992C91.0338 10.662 90.7721 9.73449 90.457 9.54899V9.41016H92.8167H95.176V9.54899C94.8357 9.73449 95.176 10.6387 96.5915 15.1382C97.2473 17.2483 97.588 18.4076 97.9551 19.7761H98.0338C98.5578 18.5239 99.1349 17.3179 100.236 15.1148C101.39 12.9814 102.517 11.0567 103.303 9.59527H103.827C104.614 11.0334 105.636 12.8888 106.973 15.1844C107.943 17.202 108.572 18.5005 109.097 19.6831H109.149C109.516 18.2921 109.831 17.1328 110.407 15.2774C111.823 10.6161 112.19 9.71155 111.849 9.54899V9.41016H114.051H116.227V9.54899C115.913 9.75783 115.624 10.6387 113.685 16.5992L110.014 27.8464Z" fill="#000"/>
<path fill-rule="evenodd" clip-rule="evenodd" d="M126.319 19.498C126.319 26.2469 126.319 27.0814 126.685 27.3599V27.4987H124.405H122.02V27.3366C122.386 27.0814 122.386 26.2469 122.386 19.5214V16.9469C122.386 10.6624 122.386 9.8041 122.046 9.57271V9.41016H124.353H126.659V9.57271C126.319 9.8041 126.319 10.6391 126.319 16.9469V19.498Z" fill="#000"/>
<path fill-rule="evenodd" clip-rule="evenodd" d="M142.737 14.8822C142.737 13.2123 141.505 12.2389 139.539 12.2389C139.093 12.2389 138.726 12.2615 138.49 12.2848V17.8044C138.7 17.8273 138.989 17.8273 139.25 17.8273C139.984 17.8273 140.719 17.6422 141.243 17.3638C141.977 16.9928 142.737 16.2041 142.737 14.9056V14.8822ZM134.767 16.9462C134.767 10.6617 134.767 9.6879 134.453 9.59457V9.45573C134.899 9.4324 135.633 9.40946 136.367 9.38612C136.996 9.36279 138.15 9.33984 138.831 9.33984C140.325 9.33984 141.61 9.45573 142.764 9.78046C144.389 10.244 146.617 11.5892 146.617 14.6739C146.617 16.8307 145.359 18.2218 144.415 18.8249C143.917 19.1726 143.34 19.4973 142.895 19.6366V19.6828C143.262 20.1468 143.707 20.7037 147.64 25.5271C148.269 26.2921 149.081 27.22 149.343 27.3592V27.498H147.089H145.411C145.175 27.498 144.835 27.4747 144.573 27.4055C143.052 25.3875 141.269 23.0223 139.198 20.3327H138.49V21.2598C138.49 26.2462 138.516 27.22 138.805 27.3592V27.498H136.655H134.453V27.3592C134.767 27.22 134.767 26.2462 134.767 19.4973V16.9462Z" fill="#000"/>
<path fill-rule="evenodd" clip-rule="evenodd" d="M155.672 16.9469C155.672 10.6624 155.672 9.68821 155.358 9.54938V9.41016H160.758H166.08C166.08 10.4539 166.054 11.2656 166.054 12.6333H165.897C165.713 12.3786 164.533 12.309 162.934 12.309H159.579V16.8773H162.908C164.533 16.8773 165.031 16.854 165.215 16.6922H165.346V18.2687V19.962H165.215C165.031 19.7761 164.507 19.7528 162.961 19.7528H159.579V24.136C159.579 24.3444 159.605 24.4607 159.762 24.554C161.125 24.5766 162.934 24.5766 164.14 24.554C165.241 24.554 165.949 24.507 166.159 24.2752H166.316C166.29 25.667 166.29 26.432 166.29 27.4987H161.178H155.332V27.3599C155.672 27.2207 155.672 26.2469 155.672 19.498V16.9469Z" fill="#000"/>
<mask id="mask0" mask-type="alpha" maskUnits="userSpaceOnUse" x="0" y="0" width="167" height="28">
<path fill-rule="evenodd" clip-rule="evenodd" d="M0 27.8467H166.326V0H0V27.8467Z" fill="white"/>
</mask>
<g mask="url(#mask0)">
<path fill-rule="evenodd" clip-rule="evenodd" d="M0 2.14475H62.5271V1.66797H0V2.14475Z" fill="#000"/>
<path fill-rule="evenodd" clip-rule="evenodd" d="M104.686 2.14475H166.325V1.66797H104.686V2.14475Z" fill="#000"/>
<path fill-rule="evenodd" clip-rule="evenodd" d="M71.774 0.618729H71.0686C70.9058 0.618729 70.7872 0.638562 70.7329 0.698063H70.6934V0H71.8825H72.3763H73.5899V0.698063H73.5558C73.4914 0.638562 73.3775 0.618729 73.2201 0.618729H72.5092V2.15369C72.5092 3.59998 72.5092 3.82709 72.5837 3.83254V3.86209H72.1492H71.705V3.83254C71.774 3.79287 71.774 3.59454 71.774 2.15369V0.618729Z" fill="#000"/>
<path fill-rule="evenodd" clip-rule="evenodd" d="M85.1802 2.15369C85.1802 3.59454 85.1802 3.80221 85.2492 3.83254V3.86209H84.8247H84.3705V3.83254C84.4403 3.80221 84.4403 3.59454 84.4403 2.3913V2.22291H82.7972V2.3913C82.7972 3.59454 82.7972 3.80221 82.8658 3.83254V3.86209H82.4368H81.9922V3.83254C82.0616 3.80221 82.0616 3.59454 82.0616 2.15369V1.60885C82.0616 0.267558 82.0616 0.0595006 81.9976 0.0303336V0H82.4368H82.8612V0.0303336C82.7972 0.0595006 82.7972 0.267558 82.7972 1.43579V1.58902H84.4403V1.43579C84.4403 0.267558 84.4403 0.0595006 84.3806 0.0303336V0H84.8247H85.2395V0.0303336C85.1802 0.0595006 85.1802 0.267558 85.1802 1.60885V2.15369Z" fill="#000"/>
<path fill-rule="evenodd" clip-rule="evenodd" d="M93.6284 1.60885C93.6284 0.267558 93.6284 0.0595006 93.5691 0.0299447V0H94.5854H95.5873C95.5873 0.223225 95.5819 0.396282 95.5819 0.68834H95.5524C95.5179 0.633895 95.2962 0.618729 94.9955 0.618729H94.3637V1.59446H94.99C95.2962 1.59446 95.3896 1.58902 95.4245 1.55479H95.4489V1.89157V2.25286H95.4245C95.3896 2.21319 95.2916 2.20852 95.0001 2.20852H94.3637V3.14381C94.3637 3.18853 94.3687 3.21303 94.3978 3.23287C94.6544 3.23753 94.9955 3.23753 95.2218 3.23287C95.4292 3.23287 95.5629 3.22314 95.6017 3.17337H95.6315C95.6269 3.47048 95.6269 3.6342 95.6269 3.86171H94.6645H93.5645V3.83254C93.6284 3.80221 93.6284 3.59415 93.6284 2.15369V1.60885Z" fill="#000"/>
</g>
</svg>
